<svg width="170" height="185" viewBox="0 0 170 185" fill="none" xmlns="http://www.w3.org/2000/svg">
<path d="M125.246 0H45.7541C30.9782 0 19 11.9782 19 26.7541V106.246C19 121.022 30.9782 133 45.7541 133H125.246C140.022 133 152 121.022 152 106.246V26.7541C152 11.9782 140.022 0 125.246 0Z" fill="#635EFF"/>
<path d="M105.65 106.406C99.5935 109.477 92.7437 111.212 85.5 111.212C67.799 111.212 52.4727 100.875 45.229 85.9192C43.3054 81.9463 41.9525 77.6537 41.279 73.1386C40.9536 70.9695 40.7881 68.7547 40.7881 66.4943C40.7881 53.6738 46.2165 42.092 54.8929 33.935L62.1023 44.2268C56.5768 50.032 53.1805 57.875 53.1805 66.4943C53.1805 68.7719 53.4145 70.9923 53.8654 73.1386C54.853 77.8535 56.8736 82.1974 59.6821 85.9192C65.5843 93.745 74.9628 98.8196 85.5 98.8196C90.1008 98.8196 94.479 97.8549 98.4404 96.1139L105.65 106.406Z" fill="white"/>
<path d="M73.0505 59.8557H88.6452L108.898 88.7675L116.107 99.0593L124.801 111.469H109.2L105.65 106.4L98.4404 96.1082L73.0505 59.8557Z" fill="#D3D3E5"/>
<path d="M46.1993 21.5255H61.7997L65.3502 26.5886L72.5539 36.8804L79.6948 47.0752L88.6452 59.8557H73.0505L64.0944 47.0752L62.1022 44.2268L54.8928 33.935L46.1993 21.5255Z" fill="#D8B50B"/>
<path d="M130.212 66.5C130.212 68.7547 130.046 70.9752 129.721 73.1443C129.047 77.6595 127.695 81.952 125.771 85.9249H111.318C114.121 82.2031 116.141 77.865 117.135 73.1443C117.586 70.998 117.82 68.7776 117.82 66.5C117.82 48.6792 103.321 34.1862 85.5 34.1862C80.8992 34.1862 76.5211 35.1508 72.5596 36.8918L65.3502 26.6C71.4066 23.529 78.2563 21.7938 85.5 21.7938C110.153 21.7938 130.212 41.8522 130.212 66.5Z" fill="white"/>
<path d="M11.356 178.704C9.76566 178.704 8.27886 178.402 6.90388 177.792C5.5289 177.183 4.32373 176.331 3.28835 175.235C2.25712 174.14 1.44953 172.874 0.869715 171.434C0.289905 169.993 0 168.459 0 166.818C0 165.177 0.289905 163.613 0.869715 162.185C1.44953 160.758 2.25298 159.501 3.27179 158.418C4.29474 157.335 5.48749 156.492 6.85418 155.895C8.22088 155.298 9.6994 155 11.2897 155C12.8801 155 14.3586 155.298 15.7253 155.895C17.092 156.492 18.2889 157.335 19.3242 158.418C20.3555 159.501 21.1589 160.766 21.7263 162.203C22.2978 163.643 22.5795 165.19 22.5795 166.852C22.5795 168.514 22.2937 170.027 21.7263 171.468C21.1548 172.908 20.3596 174.17 19.3408 175.252C18.3179 176.339 17.1251 177.183 15.7584 177.792C14.3917 178.402 12.9256 178.704 11.356 178.704ZM11.2897 175.717C12.8801 175.717 14.2923 175.333 15.5182 174.57C16.7441 173.808 17.7049 172.755 18.4048 171.417C19.1047 170.078 19.4526 168.544 19.4526 166.818C19.4526 165.535 19.2538 164.355 18.8563 163.281C18.4587 162.207 17.8954 161.273 17.1624 160.476C16.4293 159.679 15.5638 159.066 14.5657 158.635C13.5676 158.205 12.4742 157.988 11.2897 157.988C9.6994 157.988 8.29129 158.363 7.06126 159.117C5.83537 159.871 4.87041 160.911 4.17463 162.237C3.47472 163.566 3.12683 165.092 3.12683 166.818C3.12683 168.101 3.32977 169.29 3.73978 170.385C4.14978 171.481 4.71303 172.422 5.43365 173.207C6.15427 173.991 7.0157 174.609 8.0138 175.048C9.01191 175.487 10.1053 175.713 11.2897 175.713V175.717ZM22.0659 180L11.5796 169.209L13.5469 167.185L24 177.976L22.0659 180Z" fill="black"/>
<path d="M33.5184 178C32.264 178 31.1407 177.719 30.1485 177.154C29.1564 176.588 28.3857 175.789 27.8322 174.752C27.2788 173.714 27 172.511 27 171.142V162H29.8739V171.01C29.8739 171.873 30.0173 172.617 30.3043 173.246C30.5913 173.876 31.0136 174.356 31.567 174.688C32.1205 175.019 32.7682 175.185 33.5143 175.185C34.6418 175.185 35.5273 174.815 36.1668 174.075C36.8064 173.336 37.1261 172.315 37.1261 171.01V162H40V171.142C40 172.511 39.7212 173.714 39.1678 174.752C38.6143 175.789 37.8477 176.588 36.8679 177.154C35.888 177.715 34.7688 178 33.5143 178H33.5184Z" fill="black"/>
<path d="M46.5 159.697C46.0608 159.697 45.7027 159.52 45.4223 159.165C45.1419 158.811 45 158.37 45 157.834C45 157.298 45.1419 156.886 45.4223 156.532C45.7027 156.177 46.0642 156 46.5 156C46.9358 156 47.2973 156.177 47.5777 156.532C47.8581 156.886 48 157.319 48 157.834C48 158.349 47.8581 158.815 47.5777 159.165C47.2973 159.52 46.9358 159.697 46.5 159.697ZM45.2905 178V162.751H47.6858V178H45.2905Z" fill="black"/>
<path d="M50 165.171V162.494H71V165.171H50ZM54.0455 178V156H57.1584V178H54.0455ZM63.8372 178V156H66.9501V178H63.8372Z" fill="black"/>
<path d="M80.5605 178.982C78.9228 178.982 77.4603 178.612 76.1773 177.868C74.89 177.123 73.8741 176.11 73.1253 174.833C72.3766 173.551 72 172.097 72 170.476C72 168.855 72.3678 167.432 73.1078 166.15C73.8478 164.868 74.8462 163.855 76.1117 163.115C77.3727 162.37 78.7915 162 80.3591 162C81.8391 162 83.1571 162.344 84.3175 163.031C85.4778 163.718 86.3799 164.665 87.0279 165.881C87.676 167.093 88 168.48 88 170.035C88 170.264 87.9869 170.511 87.965 170.771C87.9431 171.035 87.8949 171.326 87.8292 171.648H74.15V169.075H86.1916L85.0662 170.07C85.0662 168.974 84.8736 168.04 84.4882 167.273C84.1029 166.507 83.5556 165.912 82.8506 165.489C82.1456 165.066 81.2917 164.855 80.2934 164.855C79.295 164.855 78.3273 165.084 77.5304 165.542C76.7334 166 76.1204 166.639 75.6869 167.463C75.2534 168.286 75.0389 169.26 75.0389 170.379C75.0389 171.498 75.2666 172.524 75.7219 173.383C76.1773 174.242 76.8254 174.903 77.6661 175.374C78.5068 175.841 79.4745 176.079 80.5649 176.079C81.4756 176.079 82.312 175.921 83.0739 175.599C83.8358 175.278 84.4882 174.797 85.0356 174.159L87.0148 176.185C86.2178 177.101 85.2633 177.797 84.1511 178.278C83.0345 178.758 81.8435 179 80.5692 179L80.5605 178.982Z" fill="black"/>
<path d="M92 178V162.334H94.9286V178H92ZM94.9286 169.096L93.8215 168.567C93.8215 166.564 94.2769 164.972 95.1876 163.782C96.0984 162.597 97.4102 162 99.1272 162C99.9085 162 100.615 162.135 101.241 162.411C101.872 162.686 102.457 163.143 103 163.778L101.078 165.789C100.752 165.438 100.393 165.184 100.005 165.031C99.6119 164.879 99.1565 164.799 98.6384 164.799C97.5522 164.799 96.6624 165.15 95.9689 165.853C95.2754 166.556 94.9286 167.635 94.9286 169.083V169.096Z" fill="black"/>
<path d="M110.004 178L119.411 156H121.657L131 178H127.631L119.907 159.393H121.093L113.335 178H110H110.004ZM114.496 173.024V170.424H126.547V173.024H114.496Z" fill="black"/>
<path d="M135 185V162.332H137.999V166.537L137.434 170.405L137.999 174.307V185H135ZM143.334 178.646C142.136 178.646 141.049 178.395 140.082 177.89C139.116 177.385 138.345 176.686 137.768 175.788C137.19 174.89 136.87 173.871 136.801 172.727V167.918C136.87 166.753 137.195 165.725 137.785 164.84C138.375 163.956 139.15 163.261 140.117 162.755C141.083 162.25 142.153 162 143.334 162C144.78 162 146.084 162.371 147.248 163.109C148.412 163.848 149.332 164.849 149.999 166.101C150.666 167.357 151 168.769 151 170.34C151 171.911 150.666 173.323 149.999 174.579C149.332 175.835 148.416 176.828 147.248 177.553C146.08 178.283 144.775 178.646 143.334 178.646ZM142.833 175.788C143.834 175.788 144.711 175.555 145.464 175.08C146.221 174.609 146.816 173.966 147.248 173.146C147.68 172.326 147.898 171.38 147.898 170.306C147.898 169.231 147.68 168.316 147.248 167.5C146.816 166.679 146.221 166.036 145.464 165.566C144.707 165.095 143.83 164.858 142.833 164.858C141.836 164.858 140.989 165.095 140.232 165.566C139.475 166.036 138.889 166.679 138.465 167.5C138.042 168.32 137.832 169.265 137.832 170.34C137.832 171.415 138.037 172.33 138.448 173.146C138.859 173.966 139.449 174.609 140.215 175.08C140.981 175.55 141.853 175.788 142.833 175.788Z" fill="black"/>
<path d="M154 185V162.332H156.999V166.537L156.434 170.405L156.999 174.307V185H154ZM162.334 178.646C161.136 178.646 160.049 178.395 159.082 177.89C158.116 177.385 157.345 176.686 156.768 175.788C156.19 174.89 155.87 173.871 155.801 172.727V167.918C155.87 166.753 156.195 165.725 156.785 164.84C157.375 163.956 158.15 163.261 159.117 162.755C160.083 162.25 161.153 162 162.334 162C163.78 162 165.084 162.371 166.248 163.109C167.412 163.848 168.332 164.849 168.999 166.101C169.666 167.357 170 168.769 170 170.34C170 171.911 169.666 173.323 168.999 174.579C168.332 175.835 167.416 176.828 166.248 177.553C165.08 178.283 163.775 178.646 162.334 178.646ZM161.833 175.788C162.834 175.788 163.711 175.555 164.464 175.08C165.221 174.609 165.816 173.966 166.248 173.146C166.68 172.326 166.898 171.38 166.898 170.306C166.898 169.231 166.68 168.316 166.248 167.5C165.816 166.679 165.221 166.036 164.464 165.566C163.707 165.095 162.83 164.858 161.833 164.858C160.836 164.858 159.989 165.095 159.232 165.566C158.475 166.036 157.889 166.679 157.465 167.5C157.042 168.32 156.832 169.265 156.832 170.34C156.832 171.415 157.037 172.33 157.448 173.146C157.859 173.966 158.449 174.609 159.215 175.08C159.981 175.55 160.853 175.788 161.833 175.788Z" fill="black"/>
</svg>
